<?xml version="1.0" encoding="utf-8"?>
<!-- Generator: Adobe Illustrator 19.2.0, SVG Export Plug-In . SVG Version: 6.00 Build 0)  -->
<svg version="1.1" id="Layer_1" xmlns="http://www.w3.org/2000/svg" xmlns:xlink="http://www.w3.org/1999/xlink" x="0px" y="0px"
	 width="30px" height="30px" viewBox="0 0 30 30" enable-background="new 0 0 30 30" xml:space="preserve">
<g id="surface1">
	<path fill="#50A5DC" d="M15,0.5977c-5.0547,0-9.1523,4.0977-9.1523,9.1523S15,29.4023,15,29.4023S24.1523,14.8047,24.1523,9.75
		S20.0547,0.5977,15,0.5977z M15,14.293c-2.5117,0-4.543-2.0352-4.543-4.543c0-2.5117,2.0312-4.5469,4.543-4.5469
		s4.543,2.0352,4.543,4.5469C19.543,12.2578,17.5117,14.293,15,14.293z"/>
	<path d="M15,30c-0.207,0-0.3984-0.1055-0.5078-0.2812C14.1172,29.1172,5.25,14.9141,5.25,9.75C5.25,4.375,9.625,0,15,0
		s9.75,4.375,9.75,9.75c0,5.1641-8.8672,19.3672-9.2422,19.9688C15.3984,29.8945,15.207,30,15,30z M15,1.1953
		c-4.7148,0-8.5547,3.8359-8.5547,8.5547c0,1.9648,1.5586,5.9219,4.5039,11.4336c1.6172,3.0273,3.25,5.7617,4.0508,7.0781
		c0.8008-1.3164,2.4336-4.0508,4.0508-7.0781c2.9453-5.5117,4.5039-9.4688,4.5039-11.4336C23.5547,5.0312,19.7148,1.1953,15,1.1953z
		 M15,14.8906c-2.8359,0-5.1406-2.3047-5.1406-5.1406S12.1641,4.6055,15,4.6055s5.1406,2.3086,5.1406,5.1445
		S17.8359,14.8906,15,14.8906z M15,5.8008c-2.1758,0-3.9492,1.7695-3.9492,3.9492c0,2.1758,1.7734,3.9453,3.9492,3.9453
		s3.9492-1.7695,3.9492-3.9453C18.9492,7.5703,17.1758,5.8008,15,5.8008z"/>
	<path d="M8.0039,10.3477c-0.3281,0-0.5977-0.2695-0.5977-0.5977c0-1.4414,0.4062-2.8438,1.1719-4.0547
		c0.7461-1.1797,1.8008-2.1328,3.0469-2.75c0.2969-0.1484,0.6562-0.0273,0.8008,0.2695c0.1484,0.2969,0.0273,0.6523-0.2695,0.8008
		C9.9648,5.1055,8.6016,7.3008,8.6016,9.75C8.6016,10.0781,8.3359,10.3477,8.0039,10.3477z"/>
	<path d="M18.1055,4.0781c-0.0859,0-0.1797-0.0195-0.2617-0.0625C16.9531,3.5742,16,3.3516,15,3.3516
		c-0.3281,0-0.5977-0.2695-0.5977-0.5977c0-0.332,0.2695-0.5977,0.5977-0.5977c1.1836,0,2.3203,0.2656,3.375,0.7891
		c0.293,0.1445,0.4141,0.5039,0.2695,0.8008C18.5391,3.957,18.3281,4.0781,18.1055,4.0781z"/>
</g>
</svg>
